<svg xmlns="http://www.w3.org/2000/svg" xml:space="preserve" width="1.70666in" height="1.70666in" version="1.1" style="shape-rendering:geometricPrecision; text-rendering:geometricPrecision; image-rendering:optimizeQuality; fill-rule:evenodd; clip-rule:evenodd" viewBox="0 0 1706.66 1706.66" xmlns:xlink="http://www.w3.org/1999/xlink" xmlns:xodm="http://www.corel.com/coreldraw/odm/2003">
 <defs>
  <style type="text/css">
   
    .fil1 {fill:black}
    .fil0 {fill:black}
   
  </style>
 </defs>
 <g id="Layer_x0020_1">
  <metadata id="CorelCorpID_0Corel-Layer"></metadata>
  <path class="fil0" d="M499.69 1553.06l-228.8 0c-10.9,0 -19.62,-8.85 -19.62,-19.62l0 -523.4c0,-10.76 8.72,-19.62 19.62,-19.62l228.8 0c10.9,0 19.62,8.86 19.62,19.62l0 523.54c0,10.76 -8.86,19.48 -19.62,19.48z" id="id_101" style="fill: rgb(255, 255, 255);"></path>
  <path class="fil0" d="M963.39 1553.06l-228.79 0c-10.9,0 -19.62,-8.85 -19.62,-19.62l0 -654.22c0,-10.76 8.72,-19.62 19.62,-19.62l228.79 0c10.76,0 19.62,8.86 19.62,19.62l0 654.21c0,10.91 -8.86,19.63 -19.62,19.63z" id="id_102" style="fill: rgb(255, 255, 255);"></path>
  <path class="fil0" d="M1426.97 1553.06l-228.8 0c-10.76,0 -19.62,-8.85 -19.62,-19.62l0 -831.76c0,-10.9 8.86,-19.62 19.62,-19.62l228.8 0c10.76,0 19.62,8.72 19.62,19.62l0 831.76c0,10.9 -8.72,19.62 -19.62,19.62z" id="id_103" style="fill: rgb(255, 255, 255);"></path>
  <path class="fil1" d="M71.94 1497.46l1599.21 0c47.34,0 47.34,71.94 0,71.94l-1635.19 0c-19.86,0 -35.98,-16.12 -35.98,-35.97l0 -1310.74c0,-47.37 71.95,-47.37 71.95,0l0 1274.77z" id="id_104" style="fill: rgb(252, 255, 255);"></path>
  <path class="fil1" d="M990.08 682.52c0.22,-5.51 1.74,-11.12 4.8,-16.41l251.82 -436.19c10.31,-17.85 31.47,-23.09 49.04,-13 17.61,10.12 23.68,31.08 13.35,48.96l-251.82 436.19c-6.44,11.17 -18.31,17.99 -31.19,17.99 -13.42,0 -24.43,-7.13 -30.61,-17.2 -0.72,17.83 -14.24,35.05 -36.02,35.05 -6.31,0 -12.35,-1.59 -17.92,-4.74l-402.87 -232.64c-5.29,-3.06 -9.47,-7.07 -12.48,-11.65 -0.31,5.46 -1.93,11.02 -4.98,16.3l-225.35 390.06c-6.28,11.11 -18.26,18.05 -31.09,18.05 -27.55,0 -44.98,-30.09 -31.19,-53.96l225.25 -390.13c10.33,-17.89 31.5,-23.15 49.09,-12.97 5.35,3.1 9.64,7.21 12.72,11.93 0.3,-5.62 1.96,-11.31 5.04,-16.68 10.12,-17.6 31.08,-23.66 48.96,-13.33l402.94 232.61c5.47,3.16 9.61,7.22 12.52,11.77z" id="id_105" style="fill: rgb(252, 255, 255);"></path>
  <path class="fil0" d="M240.37 987.96c-37.74,0 -68.4,-30.66 -68.4,-68.41 0,-37.74 30.66,-68.4 68.4,-68.4 37.75,0 68.41,30.66 68.41,68.4 0,37.75 -30.79,68.41 -68.41,68.41z" id="id_106" style="fill: rgb(255, 255, 255);"></path>
  <path class="fil0" d="M514.4 513.35c-37.75,0 -68.41,-30.66 -68.41,-68.41 0,-37.74 30.66,-68.4 68.41,-68.4 37.74,0 68.4,30.66 68.4,68.4 0,37.74 -30.8,68.41 -68.4,68.41z" id="id_107" style="fill: rgb(255, 255, 255);"></path>
  <path class="fil0" d="M1001.69 794.74c-37.75,0 -68.41,-30.66 -68.41,-68.4 0,-37.75 30.66,-68.41 68.41,-68.41 37.74,0 68.4,30.66 68.4,68.41 0,37.74 -30.66,68.4 -68.4,68.4z" id="id_108" style="fill: rgb(255, 255, 255);"></path>
  <path class="fil0" d="M1302.43 274.07c-37.75,0 -68.41,-30.66 -68.41,-68.41 0,-37.74 30.66,-68.41 68.41,-68.41 37.74,0 68.4,30.66 68.4,68.41 0,37.75 -30.66,68.41 -68.4,68.41z" id="id_109" style="fill: rgb(255, 255, 255);"></path>
 </g>
</svg>